<svg width="186" height="138" viewBox="0 0 186 138" fill="none" xmlns="http://www.w3.org/2000/svg">
<path d="M92.6367 137.6C80.6416 137.6 69.3692 132.903 60.8425 124.449L13.1513 76.7575C4.62473 68.2309 0.00012207 56.9584 0.00012207 44.9634C0.00012207 32.9683 4.69698 21.6236 13.1513 13.1692C30.7104 -4.3898 59.1806 -4.31754 76.7396 13.1692L105.282 41.7117L92.4922 54.5016L63.9497 25.9591C53.4721 15.4815 36.4189 15.4815 25.9412 25.9591C20.8831 31.0173 18.065 37.8097 18.065 44.9634C18.065 52.1171 20.8831 58.9094 25.9412 63.9676L73.6325 111.659C83.821 121.847 101.525 121.847 111.641 111.659L124.431 124.449C115.904 132.975 104.632 137.6 92.6367 137.6Z" fill="#111111"/>
<path d="M92.6367 137.6C80.6416 137.6 69.3692 132.903 60.8425 124.449L13.1513 76.7575C4.62473 68.2309 0.00012207 56.9584 0.00012207 44.9634C0.00012207 32.9683 4.69698 21.6236 13.1513 13.1692C30.7104 -4.3898 59.1806 -4.31754 76.7396 13.1692L105.282 41.7117L92.4922 54.5016L63.9497 25.9591C53.4721 15.4815 36.4189 15.4815 25.9412 25.9591C20.8831 31.0173 18.065 37.8097 18.065 44.9634C18.065 52.1171 20.8831 58.9094 25.9412 63.9676L73.6325 111.659C83.821 121.847 101.525 121.847 111.641 111.659L124.431 124.449C115.904 132.975 104.632 137.6 92.6367 137.6Z" fill="url(#paint0_linear_727_2019)"/>
<path d="M172.339 13.1693C154.78 -4.38976 126.31 -4.38976 108.751 13.1693L61.0593 60.8605H61.1315C52.9662 69.0981 47.8358 80.3705 47.8358 92.7269C47.8358 105.083 52.5327 115.994 60.987 124.449C69.4414 132.903 80.7139 137.6 92.7089 137.6C104.704 137.6 116.41 132.542 124.503 124.304H124.575L172.267 76.6853C189.826 59.1263 189.826 30.6561 172.267 13.097L172.339 13.1693ZM92.7812 119.535C85.6275 119.535 78.9074 116.717 73.8492 111.659C68.791 106.601 65.9729 99.8806 65.9729 92.7269C65.9729 77.986 77.968 65.9186 92.7812 65.9186C107.594 65.9186 119.589 77.9137 119.589 92.7269C119.589 107.54 107.594 119.535 92.7812 119.535ZM159.549 63.9676L137.076 86.4403C134.258 66.7858 118.722 51.1777 99.0677 48.4319L121.54 25.9592C132.018 15.4816 149.071 15.4816 159.549 25.9592C170.026 36.4368 170.026 53.49 159.549 63.9676Z" fill="url(#paint1_linear_727_2019)"/>
<defs>
<linearGradient id="paint0_linear_727_2019" x1="16.4001" y1="20" x2="104.4" y2="108" gradientUnits="userSpaceOnUse">
<stop stop-color="#22d3ee"/>
<stop offset="1" stop-color="#0891b2"/>
</linearGradient>
<linearGradient id="paint1_linear_727_2019" x1="87.2001" y1="31.9091" x2="171.693" y2="135.298" gradientUnits="userSpaceOnUse">
<stop stop-color="#22d3ee"/>
<stop offset="1" stop-color="#0891b2"/>
</linearGradient>
</defs>
</svg>
